<svg xmlns="http://www.w3.org/2000/svg" xmlns:xlink="http://www.w3.org/1999/xlink" width="260" height="281" viewBox="0 0 260 281"><defs><path id="l7awc" d="M302.572 246.945c18.89 55.31 15.181 106.209-3.33 133.09-17.385 27.66-54.708 38.117-99.213 26.44-45.017-11.931-91.532-28.855-110.255-56.712-19.317-28.254-33.013-79.624-5.476-121.524 18.197-27.688 137.879-216.702 218.274 18.706"/><path id="l7awd" d="M58.76 295.595a4.162 4.162 0 0 1 4.927-2.672l14.089 3.456a5.644 5.644 0 0 1 3.669 2.887 5.694 5.694 0 0 1 .258 4.675 5.677 5.677 0 0 1-3.173 3.218 5.644 5.644 0 0 1-4.51-.14l-13.11-6.23h-.001a4.175 4.175 0 0 1-1.788-1.616 4.2 4.2 0 0 1-.361-3.578m5.34-1.572l.003.002a.01.01 0 0 0-.004-.002"/><path id="l7awe" d="M73.987 303.782a4.647 4.647 0 0 0 6.399 1.576l12.18-7.418a4.69 4.69 0 0 0 1.569-6.427 4.647 4.647 0 0 0-6.399-1.574l-12.18 7.417a4.69 4.69 0 0 0-1.57 6.426"/><path id="l7awf" d="M190.366 299.823l-6.878 6.843-11.27-10.555 7.497-10.773z"/><path id="l7awg" d="M181.16 312.025a5.808 5.808 0 0 0 6.426-1.207l6.878-6.844a5.867 5.867 0 0 0 .586-7.63l-10.652-14.483a5.811 5.811 0 0 0-4.76-2.374 5.817 5.817 0 0 0-4.696 2.497l-7.498 10.772a5.867 5.867 0 0 0 .802 7.629l11.27 10.555a5.814 5.814 0 0 0 1.644 1.085"/><path id="l7awh" d="M85.161 296.962a5.808 5.808 0 0 0 8.208 1.84c37.53-25.088 70.95-2.362 83.577 8.574.232.202.412.356.534.459 2.769 2.307 5.974 1.601 7.781-.031 2.18-1.97 2.542-5.293.875-7.715a5.821 5.821 0 0 0-1.507-1.503l-.078-.068c-12.32-10.67-24.375-16.074-32.318-18.727-22.44-7.496-45.027-4.289-65.316 9.275-2.608 1.743-3.364 5.232-1.756 7.896"/><path id="l7awa" d="M58 257.797h22.638v16.862H58z"/><path id="l7awj" d="M58.51 259.99a4.157 4.157 0 0 1 5.284-1.864l13.376 5.627c1.5.63 2.66 1.88 3.175 3.429a5.695 5.695 0 0 1-.474 4.657 5.669 5.669 0 0 1-3.636 2.68 5.648 5.648 0 0 1-4.431-.847l-11.978-8.213h-.002a4.189 4.189 0 0 1-1.514-1.878 4.2 4.2 0 0 1 .2-3.59m5.52-.713l.003.002-.003-.002"/><path id="l7awk" d="M72.275 270.464a4.651 4.651 0 0 0 6.074 2.561l13.187-5.411c2.382-.978 3.523-3.71 2.55-6.1a4.651 4.651 0 0 0-6.074-2.563l-13.187 5.412c-2.382.978-3.523 3.71-2.55 6.101"/><path id="l7awl" d="M84.375 265.497c.03.077.064.154.099.23 1.341 2.936 4.552 3.426 7.72 2.878 46.876-8.122 70.445 8.816 81.212 21.602.199.235.352.416.456.536 2.375 2.715 5.652 2.522 7.69 1.193 2.46-1.603 3.335-4.829 2.067-7.483a5.834 5.834 0 0 0-1.255-1.722 9.469 9.469 0 0 1-.066-.078c-10.506-12.475-17.325-14.776-24.757-18.644-20.996-10.93-50.15-12.687-70.202-6.036-2.975.986-4.138 4.64-2.964 7.524"/><path id="l7awm" d="M167.126 227.64c1.04.456 2.274.43 3.336-.177a3.752 3.752 0 0 0 1.394-5.105l-10.143-17.889a3.717 3.717 0 0 0-5.082-1.4 3.751 3.751 0 0 0-1.395 5.104l10.143 17.89a3.712 3.712 0 0 0 1.747 1.577"/><path id="l7awn" d="M197.114 258.17a5.81 5.81 0 0 0 7.227-2.215c1.732-2.72.94-6.337-1.77-8.077-7.702-4.947-12.404-7.549-15.516-9.271-2.632-1.457-3.726-2.076-4.385-2.759-.817-.847-1.862-2.617-3.758-5.83-1.266-2.142-2.998-5.077-5.35-8.882a5.809 5.809 0 0 0-8.017-1.887c-2.733 1.703-3.574 5.308-1.879 8.053 2.29 3.707 3.919 6.466 5.228 8.682 4.757 8.057 5.401 8.916 12.54 12.867 2.98 1.649 7.482 4.14 14.864 8.881.265.17.538.316.816.438"/><path id="l7awo" d="M163.537 211.218a7.075 7.075 0 0 0-.202-9.973 7.001 7.001 0 0 0-9.93.203 7.075 7.075 0 0 0 .202 9.973 7.002 7.002 0 0 0 9.93-.203"/><path id="l7awb" d="M194.993 248.772l-20.205 32.466a5.741 5.741 0 0 0 .297 6.5l10.908 14.45a5.914 5.914 0 0 0 2.415 1.879 6.043 6.043 0 0 0 6.817-1.445l25.304-27.542a5.736 5.736 0 0 0 1.093-6.082l-5.6-13.606a5.87 5.87 0 0 0-2.591-2.897l-10.412-5.766a6.034 6.034 0 0 0-2.93-.757c-2.015 0-3.979 1-5.096 2.8"/><path id="l7awr" d="M207.904 260.403c.37.162.771.267 1.195.301 2.051.164 3.846-1.38 4.01-3.45l1.639-20.859c.162-2.07-1.369-3.881-3.42-4.045-2.05-.165-3.845 1.38-4.008 3.45l-1.64 20.858a3.766 3.766 0 0 0 2.224 3.745"/><path id="l7aws" d="M258.022 287.484a3.76 3.76 0 0 1-1.67-2.918c-.122-2.073 1.445-3.853 3.5-3.975l20.455-1.22c2.055-.122 3.818 1.46 3.94 3.532.12 2.073-1.446 3.853-3.5 3.975l-20.456 1.22a3.682 3.682 0 0 1-2.27-.614"/><path id="l7awt" d="M216.216 278.834c-2.348-1.563-3.288-4.658-2.091-7.325 1.326-2.955 4.776-4.266 7.705-2.927 8.326 3.805 13.06 6.357 16.194 8.045 2.65 1.429 3.763 2.016 4.692 2.199 1.152.226 3.198.14 6.913-.014 2.477-.104 5.87-.246 10.328-.342 3.214-.07 5.876 2.505 5.944 5.749.069 3.243-2.481 5.929-5.696 5.998-4.34.093-7.53.227-10.094.334-9.316.39-10.384.315-17.572-3.56-3-1.616-7.533-4.059-15.513-7.706a5.821 5.821 0 0 1-.81-.451"/><path id="l7awu" d="M273.696 281.514c.88-3.81 4.656-6.18 8.433-5.29 3.776.888 6.124 4.698 5.243 8.509-.88 3.81-4.657 6.18-8.433 5.29-3.776-.888-6.124-4.698-5.243-8.509"/><path id="l7awv" d="M226.588 227.475c8.325-1.111 19.649 13.038 10.372 28.498-12.033 20.052-21.076 6.014-18.216.823 3.853-6.996 16.376-12.833 6.131-27.244z"/><path id="l7aww" d="M201.952 230.414c4.45-5.397 12.392-6.131 17.74-1.641 5.348 4.49 6.076 12.505 1.626 17.902-4.45 5.397-12.391 6.131-17.74 1.64-5.347-4.49-6.075-12.504-1.626-17.9"/><path id="l7awx" d="M218.973 226.813a5.295 5.295 0 0 1 7.504-.694c2.262 1.9 2.57 5.29.688 7.573a5.296 5.296 0 0 1-7.504.694c-2.262-1.9-2.57-5.29-.688-7.573"/><path id="l7awy" d="M214.26 251.922s5.891.718 10.882-7.355c7.475-12.092-10.062-28.028-19.21-18.999 0 0-6.907-3.554-8.696 2.155-2.926 9.338 9.722 7.28 16.19 12.323 6.313 4.922-2.894 11.128.834 11.876"/><path id="l7awz" d="M255.43 351.375c0 7.787-27.42 14.099-61.243 14.099s-61.243-6.312-61.243-14.1c0-7.787 27.42-14.099 61.243-14.099 33.824 0 61.244 6.312 61.244 14.1"/><path id="l7awA" d="M255.43 351.375c0 1.301-.768 2.566-2.207 3.76-7.154-5.965-30.875-10.34-59.036-10.34s-51.882 4.375-59.036 10.34c-1.439-1.194-2.207-2.459-2.207-3.76 0-7.788 27.42-14.1 61.243-14.1 33.824 0 61.244 6.312 61.244 14.1"/><linearGradient id="l7awq" x1="174.1" x2="221.97" y1="274.86" y2="275.76" gradientUnits="userSpaceOnUse"><stop offset="0" stop-color="#fdc73d"/><stop offset="1" stop-color="#f53506"/></linearGradient><clipPath id="l7awi"><use xlink:href="#l7awa"/></clipPath><clipPath id="l7awp"><use xlink:href="#l7awb"/></clipPath></defs><g><g transform="translate(-58 -130)"><g><g><g><g><use fill="#f6f5f8" xlink:href="#l7awc"/></g></g><g><use fill="#3b396d" xlink:href="#l7awd"/></g><g><use fill="#fdc290" xlink:href="#l7awe"/></g><g><use fill="#454563" xlink:href="#l7awf"/></g><g><use fill="#454563" xlink:href="#l7awg"/></g><g><use fill="#3b396d" xlink:href="#l7awh"/></g><g><g/><g clip-path="url(#l7awi)"><use fill="#3b396d" xlink:href="#l7awj"/></g></g><g><use fill="#fdc290" xlink:href="#l7awk"/></g><g><use fill="#3b396d" xlink:href="#l7awl"/></g><g><use fill="#fdc290" xlink:href="#l7awm"/></g><g><use fill="#fec000" xlink:href="#l7awn"/></g><g><use fill="#fdc290" xlink:href="#l7awo"/></g></g><g><g/><g clip-path="url(#l7awp)"><use fill="url(#l7awq)" xlink:href="#l7awb"/></g></g><g><g><use fill="#fea16e" xlink:href="#l7awr"/></g><g><use fill="#fdc290" xlink:href="#l7aws"/></g><g><use fill="#fec000" xlink:href="#l7awt"/></g><g><use fill="#fdc290" xlink:href="#l7awu"/></g><g><use fill="#3b396d" xlink:href="#l7awv"/></g><g><use fill="#fdc290" xlink:href="#l7aww"/></g><g><use fill="#fec000" xlink:href="#l7awx"/></g><g><use fill="#3b396d" xlink:href="#l7awy"/></g><g><use fill="#4c4c4c" xlink:href="#l7awz"/></g><g><use fill="#818181" xlink:href="#l7awA"/></g></g></g></g></g></svg>